<?xml version="1.0" encoding="UTF-8"?>
<svg version="1.1" xmlns="http://www.w3.org/2000/svg" width="842" height="595">
<path d="M0 0 C7.43740271 6.48054389 12.64347108 12.32131094 13.5703125 22.52734375 C13.67315922 33.02799357 12.64437386 42.76677686 5.78515625 51.28515625 C-1.19765465 58.23278926 -10.54501062 60.58660824 -19.74584961 63.29296875 C-29.40061826 66.15791548 -37.07174115 69.1295531 -42.765625 77.828125 C-46.15651198 84.85460215 -45.96123131 91.2511501 -44.765625 98.828125 C-34.59978831 97.54045235 -26.56476352 96.03018605 -20.015625 87.68359375 C-16.64084478 82.67415436 -15.37268515 77.77731444 -14.765625 71.828125 C12.36966869 71.108515 36.14213902 88.42424682 54.984375 106.265625 C61.99181338 113.53650091 68.61035336 121.37990135 69.609375 131.703125 C69.38313705 138.30173189 66.3445983 143.07811016 61.671875 147.578125 C50.8391506 156.30393419 36.39032956 156.55888171 23.07421875 157.1796875 C21.79595215 157.24655762 20.51768555 157.31342773 19.20068359 157.38232422 C16.6435495 157.51058073 14.085063 157.61468491 11.52587891 157.69189453 C3.4540297 158.09890589 -1.59512604 159.56424727 -7.765625 164.828125 C-8.38735596 165.32940918 -9.00908691 165.83069336 -9.6496582 166.34716797 C-27.83433116 181.60591908 -34.77396606 213.90852096 -42.55126953 235.48193359 C-44.55658506 241.00763819 -46.64504532 246.50082675 -48.7421875 251.9921875 C-49.56408305 254.2696538 -50.24734157 256.46705606 -50.765625 258.828125 C-48.22368339 258.68623515 -45.68214507 258.53973345 -43.140625 258.390625 C-42.07134766 258.33165039 -42.07134766 258.33165039 -40.98046875 258.27148438 C-37.85556468 258.08513688 -34.84604069 257.84211942 -31.7578125 257.3046875 C-27.98900585 256.7044337 -24.32526877 256.64411368 -20.515625 256.640625 C-19.79632813 256.62837891 -19.07703125 256.61613281 -18.3359375 256.60351562 C-16.47766514 256.59829576 -14.61985303 256.70547987 -12.765625 256.828125 C-12.105625 257.488125 -11.445625 258.148125 -10.765625 258.828125 C-10.8384156 262.75881749 -11.00856585 265.02498884 -13.7512207 267.93457031 C-17.7237432 270.42998495 -21.34648946 271.02905932 -25.93359375 271.75 C-26.80961746 271.89971252 -27.68564117 272.04942505 -28.58821106 272.20367432 C-31.37433212 272.67613561 -34.16345015 273.12717609 -36.953125 273.578125 C-38.84072439 273.89577403 -40.72809763 274.21477008 -42.61523438 274.53515625 C-56.24024564 276.828125 -56.24024564 276.828125 -58.765625 276.828125 C-59.01908691 277.65812012 -59.27254883 278.48811523 -59.53369141 279.34326172 C-60.91717457 283.25682469 -62.62798345 286.87581343 -64.4765625 290.5859375 C-65.02287071 291.69119026 -65.02287071 291.69119026 -65.58021545 292.81877136 C-66.76098983 295.19994886 -67.94952131 297.57709874 -69.140625 299.953125 C-69.54612579 300.76325043 -69.95162659 301.57337585 -70.36941528 302.40805054 C-92.3030771 346.1189024 -121.55965025 388.34057576 -169.765625 404.828125 C-192.59431995 411.91923611 -218.81059647 413.57417583 -240.703125 402.640625 C-256.28604419 393.48906024 -266.36875619 379.56224812 -271.578125 362.390625 C-274.7018092 348.62128141 -274.25928651 333.63511227 -267.29296875 321.19921875 C-262.81878543 314.27110983 -255.82636254 305.58286249 -247.765625 302.828125 C-243.57968271 303.08521437 -241.47191784 304.57649608 -238.453125 307.390625 C-237.75574219 308.03128906 -237.05835938 308.67195313 -236.33984375 309.33203125 C-235.82035156 309.82574219 -235.30085938 310.31945312 -234.765625 310.828125 C-236.07384871 314.74605272 -237.54126583 316.81976731 -240.640625 319.515625 C-246.45039202 325.15638062 -248.9152646 331.18250492 -249.203125 339.265625 C-248.62939845 353.27246624 -242.88215398 364.3478557 -232.765625 373.828125 C-217.84102979 385.09378719 -199.23869598 386.71921327 -181.17675781 384.51171875 C-155.47484252 380.26414992 -134.10196909 366.62778792 -119.01806641 345.60449219 C-100.40326444 319.20267949 -89.6215414 289.42420871 -78.72900391 259.26660156 C-52.80457405 187.51702802 -52.80457405 187.51702802 -33.765625 164.828125 C-32.76159501 163.4978237 -31.76108277 162.16485294 -30.765625 160.828125 C-67.38260057 162.92490712 -101.74979129 167.45967413 -130.765625 191.828125 C-131.86710384 192.727967 -132.96867067 193.6277013 -134.0703125 194.52734375 C-145.84041073 204.27136025 -157.04503036 215.02307164 -166.765625 226.828125 C-167.70174278 227.92715159 -168.63795018 229.02610186 -169.57421875 230.125 C-181.80275385 244.64826328 -192.09987126 260.42490895 -201.39111328 276.96411133 C-201.8086084 277.70685303 -202.22610352 278.44959473 -202.65625 279.21484375 C-203.01750977 279.86670654 -203.37876953 280.51856934 -203.75097656 281.19018555 C-204.765625 282.828125 -204.765625 282.828125 -206.765625 284.828125 C-209.390625 284.953125 -209.390625 284.953125 -211.765625 284.828125 C-213.05009419 282.25918662 -213.09539644 280.06236163 -213.328125 277.203125 C-213.45380859 275.69878906 -213.45380859 275.69878906 -213.58203125 274.1640625 C-213.64261719 273.39320313 -213.70320313 272.62234375 -213.765625 271.828125 C-214.31992188 272.95992188 -214.87421875 274.09171875 -215.4453125 275.2578125 C-216.1768713 276.73968803 -216.90865378 278.22145315 -217.640625 279.703125 C-218.00542969 280.44949219 -218.37023437 281.19585937 -218.74609375 281.96484375 C-219.10058594 282.68027344 -219.45507812 283.39570313 -219.8203125 284.1328125 C-220.14499512 284.79265137 -220.46967773 285.45249023 -220.80419922 286.13232422 C-221.765625 287.828125 -221.765625 287.828125 -223.765625 289.828125 C-225.415625 289.498125 -227.065625 289.168125 -228.765625 288.828125 C-229.095625 280.908125 -229.425625 272.988125 -229.765625 264.828125 C-240.9583543 271.22397031 -246.66392679 279.96527809 -253.21484375 290.6875 C-255.73049484 294.79397323 -258.31046535 298.84374142 -261.015625 302.828125 C-261.59751587 303.73643066 -261.59751587 303.73643066 -262.19116211 304.66308594 C-263.34375 306.328125 -263.34375 306.328125 -265.765625 308.828125 C-269.0625 309.203125 -269.0625 309.203125 -271.765625 308.828125 C-271.00175071 301.37376558 -269.52553436 294.49080376 -267.125 287.4140625 C-266.86204132 286.63377686 -266.59908264 285.85349121 -266.32815552 285.04956055 C-263.49472049 276.80298817 -260.12939462 268.8146761 -256.640625 260.828125 C-255.97853965 259.29908618 -255.31667829 257.76995035 -254.6550293 256.24072266 C-249.36053372 244.04194637 -243.88980735 231.92931913 -238.21289062 219.90332031 C-236.73214063 216.75697636 -235.27191165 213.60160266 -233.8125 210.4453125 C-225.39838528 192.40148123 -216.17503347 174.4992209 -203.765625 158.828125 C-204.755625 159.158125 -205.745625 159.488125 -206.765625 159.828125 C-211.74621944 160.41904298 -214.69808381 160.30984692 -218.890625 157.453125 C-224.97740393 152.36083948 -229.21408464 145.21265798 -230.58984375 137.375 C-231.14018443 129.40117502 -230.10072265 121.5230486 -228.18359375 113.796875 C-227.53787822 110.75537381 -227.5136545 107.91476368 -227.765625 104.828125 C-229.70857862 102.47427073 -229.70857862 102.47427073 -233.2265625 102.40625 C-238.8851487 102.56406932 -243.42367624 105.06432038 -248.390625 107.578125 C-249.38102783 108.06458496 -250.37143066 108.55104492 -251.3918457 109.05224609 C-259.63758616 113.14676364 -267.73388371 117.51872128 -275.75830078 122.03027344 C-276.62052246 122.51270508 -277.48274414 122.99513672 -278.37109375 123.4921875 C-279.50260864 124.13341553 -279.50260864 124.13341553 -280.65698242 124.78759766 C-282.72260204 125.80689496 -284.49199013 126.46993526 -286.765625 126.828125 C-287.425625 126.498125 -288.085625 126.168125 -288.765625 125.828125 C-288.50702327 113.93244547 -277.29863275 104.29835957 -269.35546875 96.4453125 C-263.62114693 91.08358529 -257.51627076 86.81947639 -250.765625 82.828125 C-268.29934619 76.41021827 -287.43272419 84.98668339 -303.51171875 92.03125 C-306.29123362 93.01395543 -307.97002176 92.62686878 -310.765625 91.828125 C-309.64555855 83.38341344 -302.38034003 78.11312532 -296.078125 73.015625 C-283.96613343 63.76739938 -270.05313432 56.10027468 -255.765625 50.828125 C-256.4361792 50.83859863 -257.1067334 50.84907227 -257.79760742 50.85986328 C-260.84940816 50.90155671 -263.90114884 50.92749353 -266.953125 50.953125 C-268.00822266 50.96988281 -269.06332031 50.98664063 -270.15039062 51.00390625 C-271.17197266 51.01035156 -272.19355469 51.01679687 -273.24609375 51.0234375 C-274.65217896 51.03914795 -274.65217896 51.03914795 -276.08666992 51.05517578 C-278.98193312 50.80979213 -281.13625197 50.03334119 -283.765625 48.828125 C-283.84530021 45.00371479 -283.61479465 42.86234373 -281.15234375 39.86328125 C-275.01570923 34.19783256 -268.01416659 29.91257876 -260.765625 25.828125 C-260.03359863 25.41159668 -259.30157227 24.99506836 -258.54736328 24.56591797 C-225.97263447 6.22293191 -189.35084774 -5.36842784 -151.828125 -5.421875 C-151.14364288 -5.42387909 -150.45916077 -5.42588318 -149.75393677 -5.427948 C-137.72855441 -5.43656154 -126.37929477 -4.29249928 -114.6875 -1.4140625 C-110.92929042 -1.10255315 -108.95776354 -2.09189537 -105.578125 -3.734375 C-72.72401781 -18.80306755 -30.33009187 -23.81854672 0 0 Z M-185.765625 135.828125 C-192.63812299 142.49170544 -192.63812299 142.49170544 -198.765625 149.828125 C-198.435625 150.488125 -198.105625 151.148125 -197.765625 151.828125 C-193.145625 146.878125 -188.525625 141.928125 -183.765625 136.828125 C-184.425625 136.498125 -185.085625 136.168125 -185.765625 135.828125 Z M-199.765625 151.828125 C-199.765625 154.828125 -199.765625 154.828125 -199.765625 154.828125 Z " fill="#813D42" transform="translate(376.765625,36.171875)"/>
<path d="M0 0 C7.43740271 6.48054389 12.64347108 12.32131094 13.5703125 22.52734375 C13.67315922 33.02799357 12.64437386 42.76677686 5.78515625 51.28515625 C-1.19765465 58.23278926 -10.54501062 60.58660824 -19.74584961 63.29296875 C-29.40061826 66.15791548 -37.07174115 69.1295531 -42.765625 77.828125 C-46.15651198 84.85460215 -45.96123131 91.2511501 -44.765625 98.828125 C-34.59978831 97.54045235 -26.56476352 96.03018605 -20.015625 87.68359375 C-16.64084478 82.67415436 -15.37268515 77.77731444 -14.765625 71.828125 C12.36966869 71.108515 36.14213902 88.42424682 54.984375 106.265625 C61.99181338 113.53650091 68.61035336 121.37990135 69.609375 131.703125 C69.38313705 138.30173189 66.3445983 143.07811016 61.671875 147.578125 C50.8391506 156.30393419 36.39032956 156.55888171 23.07421875 157.1796875 C21.79595215 157.24655762 20.51768555 157.31342773 19.20068359 157.38232422 C16.6435495 157.51058073 14.085063 157.61468491 11.52587891 157.69189453 C3.4540297 158.09890589 -1.59512604 159.56424727 -7.765625 164.828125 C-8.38735596 165.32940918 -9.00908691 165.83069336 -9.6496582 166.34716797 C-27.83433116 181.60591908 -34.77396606 213.90852096 -42.55126953 235.48193359 C-44.55658506 241.00763819 -46.64504532 246.50082675 -48.7421875 251.9921875 C-49.56408305 254.2696538 -50.24734157 256.46705606 -50.765625 258.828125 C-48.22368339 258.68623515 -45.68214507 258.53973345 -43.140625 258.390625 C-42.07134766 258.33165039 -42.07134766 258.33165039 -40.98046875 258.27148438 C-37.85556468 258.08513688 -34.84604069 257.84211942 -31.7578125 257.3046875 C-27.98900585 256.7044337 -24.32526877 256.64411368 -20.515625 256.640625 C-19.79632813 256.62837891 -19.07703125 256.61613281 -18.3359375 256.60351562 C-16.47766514 256.59829576 -14.61985303 256.70547987 -12.765625 256.828125 C-12.105625 257.488125 -11.445625 258.148125 -10.765625 258.828125 C-10.8384156 262.75881749 -11.00856585 265.02498884 -13.7512207 267.93457031 C-17.7237432 270.42998495 -21.34648946 271.02905932 -25.93359375 271.75 C-26.80961746 271.89971252 -27.68564117 272.04942505 -28.58821106 272.20367432 C-31.37433212 272.67613561 -34.16345015 273.12717609 -36.953125 273.578125 C-38.84072439 273.89577403 -40.72809763 274.21477008 -42.61523438 274.53515625 C-56.24024564 276.828125 -56.24024564 276.828125 -58.765625 276.828125 C-59.01908691 277.65812012 -59.27254883 278.48811523 -59.53369141 279.34326172 C-60.91717457 283.25682469 -62.62798345 286.87581343 -64.4765625 290.5859375 C-65.02287071 291.69119026 -65.02287071 291.69119026 -65.58021545 292.81877136 C-66.76098983 295.19994886 -67.94952131 297.57709874 -69.140625 299.953125 C-69.54612579 300.76325043 -69.95162659 301.57337585 -70.36941528 302.40805054 C-92.3030771 346.1189024 -121.55965025 388.34057576 -169.765625 404.828125 C-192.59431995 411.91923611 -218.81059647 413.57417583 -240.703125 402.640625 C-256.28604419 393.48906024 -266.36875619 379.56224812 -271.578125 362.390625 C-274.7018092 348.62128141 -274.25928651 333.63511227 -267.29296875 321.19921875 C-262.81878543 314.27110983 -255.82636254 305.58286249 -247.765625 302.828125 C-243.57968271 303.08521437 -241.47191784 304.57649608 -238.453125 307.390625 C-237.75574219 308.03128906 -237.05835938 308.67195313 -236.33984375 309.33203125 C-235.82035156 309.82574219 -235.30085938 310.31945312 -234.765625 310.828125 C-236.07384871 314.74605272 -237.54126583 316.81976731 -240.640625 319.515625 C-246.45039202 325.15638062 -248.9152646 331.18250492 -249.203125 339.265625 C-248.62939845 353.27246624 -242.88215398 364.3478557 -232.765625 373.828125 C-217.84102979 385.09378719 -199.23869598 386.71921327 -181.17675781 384.51171875 C-155.47484252 380.26414992 -134.10196909 366.62778792 -119.01806641 345.60449219 C-100.40326444 319.20267949 -89.6215414 289.42420871 -78.72900391 259.26660156 C-52.80457405 187.51702802 -52.80457405 187.51702802 -33.765625 164.828125 C-32.76159501 163.4978237 -31.76108277 162.16485294 -30.765625 160.828125 C-67.38260057 162.92490712 -101.74979129 167.45967413 -130.765625 191.828125 C-131.86710384 192.727967 -132.96867067 193.6277013 -134.0703125 194.52734375 C-145.84041073 204.27136025 -157.04503036 215.02307164 -166.765625 226.828125 C-167.70174278 227.92715159 -168.63795018 229.02610186 -169.57421875 230.125 C-181.80275385 244.64826328 -192.09987126 260.42490895 -201.39111328 276.96411133 C-201.8086084 277.70685303 -202.22610352 278.44959473 -202.65625 279.21484375 C-203.01750977 279.86670654 -203.37876953 280.51856934 -203.75097656 281.19018555 C-204.765625 282.828125 -204.765625 282.828125 -206.765625 284.828125 C-209.390625 284.953125 -209.390625 284.953125 -211.765625 284.828125 C-213.05009419 282.25918662 -213.09539644 280.06236163 -213.328125 277.203125 C-213.45380859 275.69878906 -213.45380859 275.69878906 -213.58203125 274.1640625 C-213.64261719 273.39320313 -213.70320313 272.62234375 -213.765625 271.828125 C-214.31992188 272.95992188 -214.87421875 274.09171875 -215.4453125 275.2578125 C-216.1768713 276.73968803 -216.90865378 278.22145315 -217.640625 279.703125 C-218.00542969 280.44949219 -218.37023437 281.19585937 -218.74609375 281.96484375 C-219.10058594 282.68027344 -219.45507812 283.39570313 -219.8203125 284.1328125 C-220.14499512 284.79265137 -220.46967773 285.45249023 -220.80419922 286.13232422 C-221.765625 287.828125 -221.765625 287.828125 -223.765625 289.828125 C-225.415625 289.498125 -227.065625 289.168125 -228.765625 288.828125 C-229.095625 280.908125 -229.425625 272.988125 -229.765625 264.828125 C-240.9583543 271.22397031 -246.66392679 279.96527809 -253.21484375 290.6875 C-255.73049484 294.79397323 -258.31046535 298.84374142 -261.015625 302.828125 C-261.59751587 303.73643066 -261.59751587 303.73643066 -262.19116211 304.66308594 C-263.34375 306.328125 -263.34375 306.328125 -265.765625 308.828125 C-269.0625 309.203125 -269.0625 309.203125 -271.765625 308.828125 C-271.00175071 301.37376558 -269.52553436 294.49080376 -267.125 287.4140625 C-266.86204132 286.63377686 -266.59908264 285.85349121 -266.32815552 285.04956055 C-263.49472049 276.80298817 -260.12939462 268.8146761 -256.640625 260.828125 C-255.97853965 259.29908618 -255.31667829 257.76995035 -254.6550293 256.24072266 C-249.36053372 244.04194637 -243.88980735 231.92931913 -238.21289062 219.90332031 C-236.73214063 216.75697636 -235.27191165 213.60160266 -233.8125 210.4453125 C-225.39838528 192.40148123 -216.17503347 174.4992209 -203.765625 158.828125 C-204.755625 159.158125 -205.745625 159.488125 -206.765625 159.828125 C-211.74621944 160.41904298 -214.69808381 160.30984692 -218.890625 157.453125 C-224.97740393 152.36083948 -229.21408464 145.21265798 -230.58984375 137.375 C-231.14018443 129.40117502 -230.10072265 121.5230486 -228.18359375 113.796875 C-227.53787822 110.75537381 -227.5136545 107.91476368 -227.765625 104.828125 C-229.70857862 102.47427073 -229.70857862 102.47427073 -233.2265625 102.40625 C-238.8851487 102.56406932 -243.42367624 105.06432038 -248.390625 107.578125 C-249.38102783 108.06458496 -250.37143066 108.55104492 -251.3918457 109.05224609 C-259.63758616 113.14676364 -267.73388371 117.51872128 -275.75830078 122.03027344 C-276.62052246 122.51270508 -277.48274414 122.99513672 -278.37109375 123.4921875 C-279.50260864 124.13341553 -279.50260864 124.13341553 -280.65698242 124.78759766 C-282.72260204 125.80689496 -284.49199013 126.46993526 -286.765625 126.828125 C-287.425625 126.498125 -288.085625 126.168125 -288.765625 125.828125 C-288.50702327 113.93244547 -277.29863275 104.29835957 -269.35546875 96.4453125 C-263.62114693 91.08358529 -257.51627076 86.81947639 -250.765625 82.828125 C-268.29934619 76.41021827 -287.43272419 84.98668339 -303.51171875 92.03125 C-306.29123362 93.01395543 -307.97002176 92.62686878 -310.765625 91.828125 C-309.64555855 83.38341344 -302.38034003 78.11312532 -296.078125 73.015625 C-283.96613343 63.76739938 -270.05313432 56.10027468 -255.765625 50.828125 C-256.4361792 50.83859863 -257.1067334 50.84907227 -257.79760742 50.85986328 C-260.84940816 50.90155671 -263.90114884 50.92749353 -266.953125 50.953125 C-268.00822266 50.96988281 -269.06332031 50.98664063 -270.15039062 51.00390625 C-271.17197266 51.01035156 -272.19355469 51.01679687 -273.24609375 51.0234375 C-274.65217896 51.03914795 -274.65217896 51.03914795 -276.08666992 51.05517578 C-278.98193312 50.80979213 -281.13625197 50.03334119 -283.765625 48.828125 C-283.84530021 45.00371479 -283.61479465 42.86234373 -281.15234375 39.86328125 C-275.01570923 34.19783256 -268.01416659 29.91257876 -260.765625 25.828125 C-260.03359863 25.41159668 -259.30157227 24.99506836 -258.54736328 24.56591797 C-225.97263447 6.22293191 -189.35084774 -5.36842784 -151.828125 -5.421875 C-151.14364288 -5.42387909 -150.45916077 -5.42588318 -149.75393677 -5.427948 C-137.72855441 -5.43656154 -126.37929477 -4.29249928 -114.6875 -1.4140625 C-110.92929042 -1.10255315 -108.95776354 -2.09189537 -105.578125 -3.734375 C-72.72401781 -18.80306755 -30.33009187 -23.81854672 0 0 Z M-192.765625 1.828125 C-193.64927734 2.02567383 -194.53292969 2.22322266 -195.44335938 2.42675781 C-225.96768658 9.34672079 -259.14042833 22.77637802 -281.765625 44.828125 C-281.435625 45.818125 -281.105625 46.808125 -280.765625 47.828125 C-269.545625 47.828125 -258.325625 47.828125 -246.765625 47.828125 C-248.84198477 50.94266466 -249.28458994 51.30075191 -252.5546875 52.5546875 C-253.32361328 52.85955078 -254.09253906 53.16441406 -254.88476562 53.47851562 C-255.71169922 53.80013672 -256.53863281 54.12175781 -257.390625 54.453125 C-275.00342751 61.5970593 -298.3218563 72.54481754 -307.765625 89.828125 C-303.48142766 89.15593525 -299.81611002 87.69679265 -295.828125 86.015625 C-280.00959488 79.62028417 -264.77918879 76.43093613 -247.765625 79.828125 C-247.765625 81.478125 -247.765625 83.128125 -247.765625 84.828125 C-248.47847656 85.08078125 -249.19132812 85.3334375 -249.92578125 85.59375 C-264.71571724 92.02238793 -279.19499896 107.81541344 -286.765625 121.828125 C-286.765625 122.488125 -286.765625 123.148125 -286.765625 123.828125 C-282.04329022 122.41178657 -277.83907451 120.41244475 -273.53125 118.0546875 C-272.1380214 117.30468645 -270.74479221 116.55468649 -269.3515625 115.8046875 C-267.18768898 114.63230415 -265.02480696 113.45811366 -262.86230469 112.28320312 C-240.58632894 100.20304435 -240.58632894 100.20304435 -232.765625 100.453125 C-231.858125 100.46601563 -230.950625 100.47890625 -230.015625 100.4921875 C-227.765625 100.828125 -227.765625 100.828125 -225.765625 102.828125 C-225.15333114 108.51885618 -225.48501212 114.19495898 -226.765625 119.765625 C-228.92231664 129.5019938 -228.90047504 139.06604078 -223.765625 147.828125 C-220.82040582 151.81086457 -217.89545557 155.07490462 -213.765625 157.828125 C-210.2257857 157.96427267 -207.81574354 157.73790512 -205.0703125 155.359375 C-202.49332449 152.43479326 -200.15956178 149.35153198 -197.81640625 146.23828125 C-189.39331288 135.38634764 -178.79055723 127.39473546 -166.765625 120.828125 C-170.58569292 125.35654989 -174.54975318 129.66382348 -178.765625 133.828125 C-182.98157633 138.00598038 -186.93710915 142.29607846 -190.765625 146.828125 C-191.51328125 147.68664062 -192.2609375 148.54515625 -193.03125 149.4296875 C-223.33054006 184.77885924 -240.86414017 229.71862011 -258.515625 272.265625 C-258.80621796 272.96187988 -259.09681091 273.65813477 -259.39620972 274.37548828 C-266.43707408 290.08546462 -266.43707408 290.08546462 -268.765625 306.828125 C-264.36805964 302.78364882 -261.25220113 298.33015416 -258.015625 293.328125 C-256.95502641 291.71835497 -255.89382371 290.10898281 -254.83203125 288.5 C-253.36990023 286.27345981 -251.90862661 284.04636551 -250.44873047 281.81835938 C-240.97285537 267.43174018 -240.97285537 267.43174018 -233.765625 263.828125 C-231.785625 263.828125 -229.805625 263.828125 -227.765625 263.828125 C-227.435625 271.418125 -227.105625 279.008125 -226.765625 286.828125 C-222.62039315 284.84253586 -222.62039315 284.84253586 -220.6953125 281.2734375 C-220.18677734 280.22736328 -220.18677734 280.22736328 -219.66796875 279.16015625 C-219.15943359 278.06767578 -219.15943359 278.06767578 -218.640625 276.953125 C-218.29386719 276.23253906 -217.94710937 275.51195312 -217.58984375 274.76953125 C-216.94218224 273.42209753 -216.29950011 272.07225022 -215.66357422 270.71923828 C-214.72447536 268.74146237 -213.75058439 266.78340762 -212.765625 264.828125 C-212.105625 264.828125 -211.445625 264.828125 -210.765625 264.828125 C-210.78882813 265.95992188 -210.81203125 267.09171875 -210.8359375 268.2578125 C-210.85469401 269.73957675 -210.87289434 271.22134812 -210.890625 272.703125 C-210.91576172 273.82267578 -210.91576172 273.82267578 -210.94140625 274.96484375 C-210.9590209 276.92006961 -210.86882689 278.87554521 -210.765625 280.828125 C-210.105625 281.488125 -209.445625 282.148125 -208.765625 282.828125 C-205.10527468 278.58313539 -202.48804659 274.00536892 -199.765625 269.140625 C-195.53424603 261.69425937 -191.00383405 254.54663738 -186.18212891 247.47119141 C-182.77306543 242.43550185 -179.65406058 237.29597787 -176.640625 232.015625 C-168.33076096 217.58643914 -157.51370656 205.55694741 -145.765625 193.828125 C-145.21261719 193.22871094 -144.65960938 192.62929687 -144.08984375 192.01171875 C-107.65936755 153.14674772 -52.7033356 143.24047538 -2.015625 141.3671875 C-0.96130783 141.32733231 0.09300934 141.28747711 1.17927551 141.24641418 C6.53277572 141.04583505 11.88609323 140.86074589 17.2409668 140.70092773 C32.89631327 140.18247949 49.75057564 139.47607151 62.234375 128.828125 C64.546875 128.078125 64.546875 128.078125 66.234375 127.828125 C61.25562864 110.22286725 40.21025694 95.03232746 24.953125 86.34765625 C12.42309593 79.43026787 1.74982134 75.25193365 -12.765625 74.828125 C-12.91257812 75.529375 -13.05953125 76.230625 -13.2109375 76.953125 C-15.01902836 84.60114151 -17.3447914 90.67153707 -23.91015625 95.359375 C-36.15726416 102.53655579 -50.24317643 102.29864704 -63.765625 98.828125 C-75.65547073 94.80923582 -86.37274611 89.24701069 -93.765625 78.828125 C-96.00184916 74.14305208 -96.61818212 69.95283645 -95.765625 64.828125 C-92.485828 59.7912939 -87.11409829 58.0142804 -81.85546875 55.51171875 C-76.93379046 52.82999518 -71.33384296 48.96456091 -68.765625 43.828125 C-67.81701929 36.23927929 -70.43441509 31.93804525 -74.765625 25.828125 C-75.18714844 25.209375 -75.60867188 24.590625 -76.04296875 23.953125 C-83.41719769 14.27024688 -95.7681076 8.25428632 -106.765625 3.828125 C-107.70664062 3.44914062 -108.64765625 3.07015625 -109.6171875 2.6796875 C-136.33397426 -7.10910765 -165.61125684 -4.45941485 -192.765625 1.828125 Z M-185.765625 135.828125 C-192.63812299 142.49170544 -192.63812299 142.49170544 -198.765625 149.828125 C-198.435625 150.488125 -198.105625 151.148125 -197.765625 151.828125 C-193.145625 146.878125 -188.525625 141.928125 -183.765625 136.828125 C-184.425625 136.498125 -185.085625 136.168125 -185.765625 135.828125 Z M-199.765625 151.828125 C-199.765625 154.828125 -199.765625 154.828125 -199.765625 154.828125 Z " fill="#010000" transform="translate(376.765625,36.171875)"/>
<path d="M0 0 C2.91465479 4.37198218 2.44182718 7.74627605 1.46777344 12.71484375 C0.66076691 16.16009909 -0.21979573 19.57920101 -1.125 23 C-1.29451172 23.64773376 -1.46402344 24.29546753 -1.63867188 24.96282959 C-5.16919515 38.42254545 -9.06494717 51.77899957 -13 65.125 C-13.28651428 66.1051709 -13.57302856 67.0853418 -13.8682251 68.09521484 C-19.04534512 85.75663437 -24.552927 103.67020753 -33.3125 119.9375 C-33.77124512 120.79956055 -34.22999023 121.66162109 -34.70263672 122.54980469 C-39.0087788 130.41140968 -44.06146339 137.30581127 -50 144 C-50.73734375 144.83660156 -51.4746875 145.67320312 -52.234375 146.53515625 C-61.63502146 156.53620896 -75.81048781 167.27028937 -89.95751953 168.19287109 C-93.68006156 168.2804291 -97.40164692 168.33452877 -101.125 168.375 C-102.40632812 168.41238281 -103.68765625 168.44976562 -105.0078125 168.48828125 C-115.74309139 168.5872746 -123.52683017 165.96913027 -131.46875 158.6640625 C-138.03136151 151.53224489 -140.54194871 143.52069775 -140.3046875 133.8984375 C-139.30536827 124.39209301 -135.04155784 117.33331604 -128 111 C-124.29834435 108.60481105 -121.42810664 107.28192865 -117 108 C-114.98509397 109.56445829 -114.10221873 110.44274305 -113.63671875 112.98046875 C-113.72506402 116.82009008 -113.96652297 120.24420753 -115.0625 123.9375 C-116.81530059 130.32633114 -116.13649404 136.56061219 -112.9375 142.375 C-109.97727077 146.50594135 -106.94817488 148.7590784 -102 150 C-91.46911569 151.21802999 -82.26453402 149.49159437 -73.25 143.875 C-56.48113714 130.57143659 -50.65743941 102.42550973 -44 83 C-44.33 82.67 -44.66 82.34 -45 82 C-45.76183594 82.61488281 -46.52367187 83.22976563 -47.30859375 83.86328125 C-60.54109547 94.22130694 -60.54109547 94.22130694 -68.6015625 93.89453125 C-74.1628495 93.06607994 -77.54049531 91.64870943 -81 87 C-87.12044976 73.53944564 -82.88097753 56.72051998 -79.5859375 42.953125 C-79.04101627 40.20672198 -78.88637587 37.78895593 -79 35 C-79.99 34.505 -79.99 34.505 -81 34 C-81.35436603 29.5704246 -81.46876163 26.04406 -79.625 21.9375 C-73.63423562 15.23354938 -66.7519744 10.59453707 -58.8125 6.5 C-58.14766602 6.14953613 -57.48283203 5.79907227 -56.79785156 5.43798828 C-52.39907575 3.26919295 -49.00217301 2.49542215 -44 3 C-42 4.5625 -42 4.5625 -41 7 C-41.33891878 13.10824078 -43.51855003 17.55040132 -46.25 22.875 C-53.18214754 37.00839805 -57.21959508 51.22467191 -58 67 C-57.67 67.66 -57.34 68.32 -57 69 C-42.56973216 54.18631925 -31.89602759 36.17561856 -26.4375 16.1875 C-24.87931601 10.60806513 -23.25461634 6.97713073 -18.10546875 3.97265625 C-17.41066406 3.65167969 -16.71585938 3.33070313 -16 3 C-15.00419922 2.50306641 -15.00419922 2.50306641 -13.98828125 1.99609375 C-9.25924933 -0.0757611 -5.12711138 -0.53039083 0 0 Z " fill="#000000" transform="translate(688,291)"/>
<path d="M0 0 C5.9841395 5.13182578 12.5161772 11.73280534 13.91796875 19.796875 C14.70985817 30.18280937 13.58019714 39.77720093 6.734375 47.9921875 C-0.11263138 54.79501964 -8.69063904 57.15549515 -17.77392578 59.61767578 C-28.23854355 62.48947551 -37.45498205 66.66828314 -43.01953125 76.421875 C-46.35790713 83.65684699 -45.77633057 91.17252807 -44.08203125 98.796875 C-58.34352348 99.27164939 -72.8260704 93.59222899 -83.58203125 84.359375 C-88.41582087 79.71209817 -92.11185385 75.62266542 -92.64453125 68.671875 C-91.94601564 63.85987856 -90.73205789 62.91084966 -87.08203125 59.796875 C-84.69503521 58.36994457 -82.21403597 57.18419384 -79.70703125 55.984375 C-73.7477373 52.94073124 -68.24403296 49.99157724 -65.08203125 43.796875 C-63.42727758 37.67761814 -65.57402165 32.56831132 -68.54296875 27.2109375 C-77.13291654 13.73736457 -91.52754217 6.39475542 -106.08203125 0.796875 C-106.08203125 0.136875 -106.08203125 -0.523125 -106.08203125 -1.203125 C-71.71329178 -14.84931718 -32.57395812 -23.28480657 0 0 Z " fill="#813D42" transform="translate(374.08203125,37.203125)"/>
<path d="M0 0 C0.69867188 0.00515625 1.39734375 0.0103125 2.1171875 0.015625 C5.85444694 0.07203646 9.36581637 0.36984615 13 1.25 C11.55690455 8.99023925 8.94000316 15.96091564 6 23.25 C5.51668213 24.46373291 5.03336426 25.67746582 4.53540039 26.92797852 C3.28031555 30.07965996 2.01729173 33.22809442 0.7522583 36.37579346 C-0.46299904 39.40353441 -1.67060917 42.4343198 -2.87890625 45.46484375 C-4.92348948 50.58942682 -6.97376772 55.71168333 -9.02954102 60.83178711 C-9.50991821 62.02880249 -9.50991821 62.02880249 -10 63.25 C-10.37116943 64.11568604 -10.74233887 64.98137207 -11.12475586 65.87329102 C-12.17278567 68.29707205 -12.17278567 68.29707205 -12 71.25 C-9.29320616 70.27254667 -7.21365265 69.43026942 -5 67.5625 C-3 66.25 -3 66.25 -0.3125 66.4375 C2 67.25 2 67.25 3 69.25 C3.38079514 73.21026943 3.26369199 75.68822141 1.5625 79.3125 C-5.49923931 87.40766457 -15.02010493 91.49422016 -25.60546875 92.2421875 C-29.16341514 92.25379581 -31.76371956 91.738689 -35 90.25 C-39.50984575 85.50279395 -39.75280876 80.5039383 -40 74.25 C-42.98824414 77.14769129 -45.71938778 80.10538366 -48.375 83.3125 C-53.17253478 88.85213711 -58.44130492 91.86270139 -65.8046875 92.48828125 C-70.6462104 92.60531552 -74.15497351 92.62880498 -78.625 90.625 C-81.75045029 87.49954971 -82.94323792 84.65727977 -83.04882812 80.17919922 C-82.92591746 77.77150423 -82.70602084 75.39587196 -82.4375 73 C-82.33945068 72.11449463 -82.24140137 71.22898926 -82.14038086 70.31665039 C-79.83107606 51.50463359 -72.41313594 34.56018243 -65 17.25 C-64.62987793 16.37359863 -64.25975586 15.49719727 -63.87841797 14.59423828 C-62.9586734 12.42884839 -62.01802335 10.27479295 -61.0625 8.125 C-60.55847656 6.98804688 -60.05445313 5.85109375 -59.53515625 4.6796875 C-58 2.25 -58 2.25 -56.21557617 1.60424805 C-53.77628193 1.21422976 -51.48614119 1.13727963 -49.015625 1.15234375 C-48.08105469 1.15556641 -47.14648438 1.15878906 -46.18359375 1.16210938 C-44.73146484 1.17467773 -44.73146484 1.17467773 -43.25 1.1875 C-42.26644531 1.19201172 -41.28289062 1.19652344 -40.26953125 1.20117188 C-37.84629209 1.21293517 -35.42317727 1.22937316 -33 1.25 C-31.1789816 6.42171833 -33.09377715 10.37312456 -34.9140625 15.25390625 C-35.2313028 16.13059464 -35.54854309 17.00728302 -35.87539673 17.91053772 C-39.47805204 27.75996638 -43.41488509 37.47769007 -47.375 47.1875 C-48.80453254 50.69459017 -50.22814775 54.20400204 -51.6484375 57.71484375 C-51.9712973 58.50124741 -52.2941571 59.28765106 -52.62680054 60.09788513 C-54.1235521 63.79823966 -55.4126446 67.27424557 -56 71.25 C-35.96473685 60.20088454 -23.94737091 30.24227858 -16.13061523 10.01513672 C-14.68436681 6.42276447 -13.6149882 3.81506688 -10.73828125 1.171875 C-7.12720752 -0.04383598 -3.76099747 -0.11102576 0 0 Z " fill="#000000" transform="translate(432,293.75)"/>
<path d="M0 0 C2.9808954 3.26936915 3.39769399 6.22639107 3.23828125 10.59765625 C2.75800404 15.43979529 1.89241096 20.21922701 1 25 C7.33224857 26.89967457 13.32232591 27.33728876 19.92578125 27.55859375 C23 28 23 28 24.91796875 29.32421875 C26 31 26 31 26 34.375 C24.23123509 40.7867728 19.84089263 43.12985053 14.625 46.8125 C3.39688963 54.92503551 -5.01660375 67.26664531 -7.37109375 81.1953125 C-7.49421533 84.77308075 -7.27065566 86.6507669 -5.0625 89.5 C-0.32166718 91.82204057 4.1531114 91.93707961 9.18359375 90.28125 C10.52926553 89.73178856 11.87191898 89.17485693 13.2109375 88.609375 C15.76768048 87.73851931 17.50890334 88.04752186 20 89 C22 91 22 91 22.375 93.75 C21.62919698 100.21362621 17.18236041 104.25973233 12.390625 108.26171875 C3.91759799 114.4226616 -5.90760136 118.62153599 -16.54296875 117.8046875 C-24.34123336 116.36782132 -29.41523801 112.28767359 -34 106 C-37.67355292 94.97934124 -34.03921583 82.66521095 -29.421875 72.5390625 C-24.89400306 63.78925591 -19.93287203 54.77804783 -11 50 C-10.34 50 -9.68 50 -9 50 C-10.8769384 47.92196105 -12.48149821 46.2592509 -15 45 C-15.66 45 -16.32 45 -17 45 C-17.9590625 45.9590625 -17.9590625 45.9590625 -18.9375 46.9375 C-21 49 -21 49 -23.6875 49.3125 C-26 49 -26 49 -27 48 C-26.94032569 46.55875218 -26.80575142 45.1205002 -26.640625 43.6875 C-26.53943359 42.78128906 -26.43824219 41.87507813 -26.33398438 40.94140625 C-26.22376953 39.97074219 -26.11355469 39.00007813 -26 38 C-25.80680008 36.0417151 -25.61410078 34.08338076 -25.421875 32.125 C-25.19936839 30.08317461 -24.97539498 28.04150856 -24.75 26 C-24.65332031 24.98421875 -24.55664062 23.9684375 -24.45703125 22.921875 C-23.5286436 14.78544388 -21.39518914 7.48224527 -15.5625 1.5 C-9.85449679 -1.84127017 -6.25424653 -2.71410698 0 0 Z " fill="#000000" transform="translate(569,264)"/>
<path d="M0 0 C1 1 1 1 1.375 3.875 C1.189375 5.421875 1.189375 5.421875 1 7 C-1.125 8.5625 -1.125 8.5625 -4 10 C-8.57097539 13.43440853 -11.62828613 16.84445377 -14.625 21.6875 C-15.01107422 22.30036865 -15.39714844 22.9132373 -15.79492188 23.54467773 C-21.69603697 33.13398976 -24.98987083 42.64450066 -24 54 C-23.15163476 57.05649286 -23.15163476 57.05649286 -21 59 C-17.02332232 60.8353897 -14.83615341 61.19763626 -10.5625 60.1875 C-2.72855561 56.18270331 3.55286217 46.87724855 7 39 C7.07181771 35.26547907 6.30436323 33.54531746 4.5 30.3125 C1.12437239 22.85798902 1.37740135 14.66724429 4 7 C5.33781466 4.14194141 6.27125864 2.52770926 8.8125 0.6875 C11.82239992 -0.25846855 13.85198036 -0.44072275 17 0 C21.43796794 2.61056938 23.23961745 4.81206376 24.875 9.6875 C28.45424133 24.1962104 24.41475688 39.85712168 18 53 C17.59265625 53.88816406 17.1853125 54.77632813 16.765625 55.69140625 C9.51889713 70.33405933 -3.03534074 83.29170447 -18 90 C-24.33829163 91.70724952 -29.7346345 91.15613023 -35.67578125 88.4140625 C-42.22864197 84.42728001 -46.01703256 78.46472453 -48.34375 71.25390625 C-51.63010257 54.95907477 -47.40398894 40.02293503 -39 26 C-36.25558552 22.36915968 -33.2675826 19.16288771 -30 16 C-28.89978516 14.92105469 -28.89978516 14.92105469 -27.77734375 13.8203125 C-22.1063391 8.51937341 -8.41881624 -3.8856075 0 0 Z " fill="#000000" transform="translate(498,294)"/>
<path d="M0 0 C-0.13556994 8.26976637 -3.07687941 13.44300532 -8 20 C-8.55558594 20.52464844 -9.11117187 21.04929687 -9.68359375 21.58984375 C-11.90143339 23.96563043 -11.70541522 26.87740133 -12 30 C-7.33845958 28.50164772 -6.13389249 25.11536409 -4 21 C-3.34 21 -2.68 21 -2 21 C-3.26875388 25.95967428 -4.91952254 28.84690378 -9 32 C-12.1875 32.4375 -12.1875 32.4375 -15 32 C-15.99 31.01 -15.99 31.01 -17 30 C-17.66 30.66 -18.32 31.32 -19 32 C-21.5 32.25 -21.5 32.25 -24 32 C-24.99 31.01 -24.99 31.01 -26 30 C-26.66 30.66 -27.32 31.32 -28 32 C-30.5 32.25 -30.5 32.25 -33 32 C-33.99 31.01 -33.99 31.01 -35 30 C-35.66 30.66 -36.32 31.32 -37 32 C-39.5625 32.1875 -39.5625 32.1875 -42 32 C-43 31 -43 31 -43.125 28.1875 C-43.02150165 25.54829203 -42.6871155 23.51397021 -42 21 C-42.9593419 22.27007214 -43.91743294 23.54108919 -44.875 24.8125 C-45.40867187 25.52019531 -45.94234375 26.22789062 -46.4921875 26.95703125 C-47.70814781 28.60456297 -48.86416141 30.29624211 -50 32 C-52.73496028 32.27676965 -55.20866105 32.37250086 -57.9375 32.3125 C-58.66646484 32.31572266 -59.39542969 32.31894531 -60.14648438 32.32226562 C-63.94536286 32.28396346 -65.77250526 32.15166316 -69 30 C-69.66 30.66 -70.32 31.32 -71 32 C-73.5 32.25 -73.5 32.25 -76 32 C-76.99 31.01 -76.99 31.01 -78 30 C-78.66 30.66 -79.32 31.32 -80 32 C-83.73296326 32.38286803 -84.77626323 32.14915785 -88 30 C-88.66 30.66 -89.32 31.32 -90 32 C-92.5625 31.75 -92.5625 31.75 -95 31 C-95.495 30.01 -95.495 30.01 -96 29 C-96.391875 29.495 -96.78375 29.99 -97.1875 30.5 C-99 32 -99 32 -101.5625 32.3125 C-104 32 -104 32 -106 30 C-106.66 30.66 -107.32 31.32 -108 32 C-110.5625 32.1875 -110.5625 32.1875 -113 32 C-114 31 -114 31 -114.125 28.1875 C-114.02150165 25.54829203 -113.6871155 23.51397021 -113 21 C-113.9593419 22.27007214 -114.91743294 23.54108919 -115.875 24.8125 C-116.40867187 25.52019531 -116.94234375 26.22789062 -117.4921875 26.95703125 C-118.70814781 28.60456297 -119.86416141 30.29624211 -121 32 C-123.7427508 32.47114738 -126.19558897 32.17805784 -129 32 C-130 31 -130 31 -130.1875 27.625 C-130 24 -130 24 -128 21 C-128 20.01 -128 19.02 -128 18 C-128.66 17.67 -129.32 17.34 -130 17 C-130.23783203 17.87011719 -130.23783203 17.87011719 -130.48046875 18.7578125 C-132.11402388 24.22706336 -133.67985366 28.17077938 -138 32 C-142.45706394 32.61476744 -144.23500419 32.5099972 -148 30 C-148.99 30.66 -149.98 31.32 -151 32 C-153.5625 32.25 -153.5625 32.25 -156 32 C-156.66 31.34 -157.32 30.68 -158 30 C-158.66 30.66 -159.32 31.32 -160 32 C-163.0625 32.1875 -163.0625 32.1875 -166 32 C-166.33 31.67 -166.66 31.34 -167 31 C-166.61140641 27.50265772 -166.11403913 24.34211739 -165 21 C-168.63559661 24.43361902 -171.36113346 27.7973607 -174 32 C-175.32 31.67 -176.64 31.34 -178 31 C-176.81811807 28.33926581 -175.60735415 25.69973787 -174.375 23.0625 C-174.04371094 22.30775391 -173.71242188 21.55300781 -173.37109375 20.77539062 C-172.37313758 18.67591679 -171.43825603 16.82799521 -170 15 C-166.7265625 13.99609375 -166.7265625 13.99609375 -164 14 C-164.66 15.32 -165.32 16.64 -166 18 C-165.2575 17.505 -164.515 17.01 -163.75 16.5 C-161 15 -161 15 -157 15 C-159 20 -161 25 -163 30 C-157.97249756 25.87026585 -156.00442994 20.01328983 -154 14 C-154.66 14 -155.32 14 -156 14 C-156 13.34 -156 12.68 -156 12 C-154.68 12 -153.36 12 -152 12 C-151.7525 11.113125 -151.505 10.22625 -151.25 9.3125 C-149.9351131 5.82804971 -148.62888121 3.62888121 -146 1 C-144.68 1 -143.36 1 -142 1 C-141.80377759 5.21878192 -142.19769832 8.17010894 -144 12 C-143.34 12 -142.68 12 -142 12 C-142 12.66 -142 13.32 -142 14 C-142.89138672 14.15082031 -142.89138672 14.15082031 -143.80078125 14.3046875 C-147.69575605 15.53613602 -149.86359893 18.63334939 -152 22 C-152.7340304 24.44834656 -152.89467927 26.41964199 -153 29 C-148.2341249 27.41137497 -147.17599415 23.16912133 -144.9140625 18.8828125 C-142.86310414 15.79381807 -141.35890689 14.50534743 -138 13 C-135.1875 13.3125 -135.1875 13.3125 -133 14 C-132.505 15.485 -132.505 15.485 -132 17 C-131.34 14.36 -130.68 11.72 -130 9 C-128.68 9 -127.36 9 -126 9 C-126 10.65 -126 12.3 -126 14 C-124.68 14.33 -123.36 14.66 -122 15 C-122.56825653 20.54050113 -124.62886517 25.03715966 -127 30 C-122.9202545 26.30629494 -120.99579467 22.27527849 -118.66015625 17.36328125 C-117 15 -117 15 -114.30859375 14.16796875 C-113.16583984 14.08482422 -113.16583984 14.08482422 -112 14 C-112 14.99 -112 15.98 -112 17 C-111.4225 16.649375 -110.845 16.29875 -110.25 15.9375 C-107.60213494 14.83422289 -106.66814674 15.19843491 -104 16 C-104.52400391 17.01320313 -104.52400391 17.01320313 -105.05859375 18.046875 C-105.51363281 18.93890625 -105.96867187 19.8309375 -106.4375 20.75 C-106.88996094 21.63171875 -107.34242188 22.5134375 -107.80859375 23.421875 C-108.83455398 25.64198566 -109.51508603 27.61444619 -110 30 C-107.18759038 27.58936318 -105.58115866 25.32245322 -104.0625 22 C-102.28301923 18.296197 -100.63805895 16.11515055 -97 14 C-93.1875 13.25 -93.1875 13.25 -90 13 C-88.25 14.9375 -88.25 14.9375 -87 18 C-87.94912581 21.20665106 -89.39876789 24.07185045 -91 27 C-90.67 27.33 -90.34 27.66 -90 28 C-87.42974154 23.7162359 -85.41292095 19.8274799 -84 15 C-84.99 14.505 -84.99 14.505 -86 14 C-86 13.34 -86 12.68 -86 12 C-85.39027344 11.9278125 -84.78054688 11.855625 -84.15234375 11.78125 C-81.82813091 11.18340988 -81.82813091 11.18340988 -80.69140625 8.96875 C-79.93925181 7.32390014 -79.18924794 5.67806516 -78.44140625 4.03125 C-77 2 -77 2 -74.33984375 1.21875 C-73.56769531 1.1465625 -72.79554688 1.074375 -72 1 C-70.81674292 5.14139978 -71.35832859 7.1010304 -73 11 C-72.505 12.485 -72.505 12.485 -72 14 C-71.01 14 -70.02 14 -69 14 C-69.60636233 19.76044212 -71.75658279 24.72014369 -74 30 C-73.01 30 -72.02 30 -71 30 C-70.73058594 29.27167969 -70.46117187 28.54335938 -70.18359375 27.79296875 C-69.02704406 25.06381684 -67.70504088 22.77422158 -66.0625 20.3125 C-65.55847656 19.54550781 -65.05445313 18.77851563 -64.53515625 17.98828125 C-63 16 -63 16 -60 14 C-56.875 13.8125 -56.875 13.8125 -54 14 C-53 15 -53 15 -52.6875 18.6875 C-52.71216172 23.249919 -54.19178383 25.48972978 -57 29 C-51.68383103 27.15039198 -50.2972494 22.37119894 -47.87890625 17.65234375 C-46 15 -46 15 -43.27734375 14.12890625 C-42.52582031 14.08636719 -41.77429688 14.04382813 -41 14 C-41.33 15.32 -41.66 16.64 -42 18 C-41.443125 17.505 -40.88625 17.01 -40.3125 16.5 C-37.5921272 14.73543386 -36.16938913 14.87385516 -33 15 C-33.54140625 16.13888672 -33.54140625 16.13888672 -34.09375 17.30078125 C-34.5578125 18.29464844 -35.021875 19.28851563 -35.5 20.3125 C-35.9640625 21.29863281 -36.428125 22.28476562 -36.90625 23.30078125 C-38.18777472 25.97800126 -38.18777472 25.97800126 -38 29 C-37.56300781 28.25556641 -37.56300781 28.25556641 -37.1171875 27.49609375 C-29.38875696 14.6882859 -29.38875696 14.6882859 -23.3125 12.9375 C-20 13 -20 13 -17 15 C-16.0625 16.6875 -16.0625 16.6875 -16 19 C-16.91270345 20.8680566 -17.94840858 22.57910324 -19.08984375 24.31640625 C-20.23777986 26.12086452 -20.23777986 26.12086452 -20 29 C-16.15466472 23.45819327 -13.56709866 17.79448823 -11.31982422 11.45678711 C-9.13285307 5.56825586 -6.82205712 0 0 0 Z M-145 4 C-146.06775224 5.96466413 -147.06553465 7.96855359 -148 10 C-147.67 10.66 -147.34 11.32 -147 12 C-145.37249963 9.67676547 -145.37249963 9.67676547 -144 7 C-144.33 6.01 -144.66 5.02 -145 4 Z M-3 4 C-3.680625 5.11375 -4.36125 6.2275 -5.0625 7.375 C-5.44535156 8.00148438 -5.82820312 8.62796875 -6.22265625 9.2734375 C-6.47917969 9.84320313 -6.73570312 10.41296875 -7 11 C-6.67 11.66 -6.34 12.32 -6 13 C-5.319375 11.88625 -4.63875 10.7725 -3.9375 9.625 C-3.55464844 8.99851562 -3.17179688 8.37203125 -2.77734375 7.7265625 C-2.52082031 7.15679687 -2.26429688 6.58703125 -2 6 C-2.33 5.34 -2.66 4.68 -3 4 Z M-75 5 C-76.485 8.465 -76.485 8.465 -78 12 C-77.34 12 -76.68 12 -76 12 C-74.87483915 10.16715557 -74.87483915 10.16715557 -74 8 C-74.33 7.01 -74.66 6.02 -75 5 Z M-8 13 C-7 15 -7 15 -7 15 Z M-150 14 C-149 16 -149 16 -149 16 Z M-76 14 C-77.82901494 16.03007338 -77.82901494 16.03007338 -79.625 18.625 C-80.57246094 19.91277344 -80.57246094 19.91277344 -81.5390625 21.2265625 C-83.21526537 24.40865885 -83.28071521 26.45467091 -83 30 C-79.64933828 28.614012 -78.16628149 27.2243823 -76.3125 24.125 C-75.89613281 23.44695312 -75.47976563 22.76890625 -75.05078125 22.0703125 C-74.00754293 20.01486153 -73.35697597 18.27512683 -73 16 C-73.33 15.34 -73.66 14.68 -74 14 C-74.66 14 -75.32 14 -76 14 Z M-136 15 C-137.70884005 16.62339805 -139.37446717 18.29319053 -141 20 C-141 20.66 -141 21.32 -141 22 C-138.53199953 20.84826645 -136.95216435 19.95216435 -135 18 C-135.33 17.01 -135.66 16.02 -136 15 Z M-24.375 17.125 C-29.61034758 22.74936151 -29.61034758 22.74936151 -31 30 C-27.19030112 28.50814889 -25.54171208 26.39723489 -23.25 23.0625 C-22.63640625 22.18722656 -22.0228125 21.31195313 -21.390625 20.41015625 C-19.75011852 18.03068042 -19.75011852 18.03068042 -20 15 C-22.28273409 14.77773505 -22.28273409 14.77773505 -24.375 17.125 Z M-92 15 C-96.55680708 18.52060163 -99.90731408 21.46053728 -102 27 C-102 27.99 -102 28.98 -102 30 C-97.91403748 28.47236536 -96.20173821 25.88915809 -93.75 22.375 C-93.04359375 21.37210937 -92.3371875 20.36921875 -91.609375 19.3359375 C-90.81273437 18.17964844 -90.81273437 18.17964844 -90 17 C-90.66 16.34 -91.32 15.68 -92 15 Z M-58 16 C-61.29698883 19.59671508 -63.89981996 22.79603914 -64.125 27.75 C-64.08375 28.4925 -64.0425 29.235 -64 30 C-63.01 30 -62.02 30 -61 30 C-60.67 28.35 -60.34 26.7 -60 25 C-58.68 24.67 -57.36 24.34 -56 24 C-55.67 21.36 -55.34 18.72 -55 16 C-55.99 16 -56.98 16 -58 16 Z M-136.3125 20.9375 C-138.74676662 22.8056581 -140.04122708 23.56166327 -143 24 C-143 25.98 -143 27.96 -143 30 C-139.55169199 29.712641 -138.23781351 29.23781351 -135.75 26.75 C-134.02323318 24.03650929 -133.36168087 22.16470757 -133 19 C-134.37505985 18.89296336 -134.37505985 18.89296336 -136.3125 20.9375 Z " fill="#813A40" transform="translate(541,414)"/>
<path d="M0 0 C1.875 1.875 1.875 1.875 2.5625 4.8125 C1.875 7.875 1.875 7.875 -0.8125 10.25 C-4.01828975 11.82265158 -5.64022533 12.28497349 -9.125 11.875 C-5.375 8.875 -5.375 8.875 -3.125 8.875 C-2.795 6.895 -2.465 4.915 -2.125 2.875 C-6.30683694 0.78408153 -10.54129574 1.36684741 -14.83984375 2.74609375 C-17.53496352 3.92545032 -19.80883776 5.05804943 -22.125 6.875 C-23.42642916 10.53542692 -23.42642916 10.53542692 -23.125 13.875 C-18.67 15.855 -18.67 15.855 -14.125 17.875 C-14.125 18.865 -14.125 19.855 -14.125 20.875 C-14.99382813 20.90078125 -15.86265625 20.9265625 -16.7578125 20.953125 C-25.77810262 21.26208439 -25.77810262 21.26208439 -33.125 25.875 C-35.11395584 28.46929022 -35.1347294 29.63662974 -35 32.9375 C-33.96131189 36.42452436 -33.21382184 37.07100218 -30.125 38.875 C-22.48669936 40.10199185 -15.68524705 38.92501445 -9.125 34.875 C-6.97962778 33.30705716 -5.08287128 31.6822658 -3.125 29.875 C-3.62 27.895 -3.62 27.895 -4.125 25.875 C-2.805 25.875 -1.485 25.875 -0.125 25.875 C0.535 26.535 1.195 27.195 1.875 27.875 C3.195 25.895 4.515 23.915 5.875 21.875 C7.050625 22.1225 7.050625 22.1225 8.25 22.375 C10.75708039 22.9373707 10.75708039 22.9373707 12.875 22.875 C13.535 22.215 14.195 21.555 14.875 20.875 C17.00390625 20.828125 17.00390625 20.828125 19.4375 21.125 C20.24316406 21.21265625 21.04882812 21.3003125 21.87890625 21.390625 C22.53761719 21.55046875 23.19632813 21.7103125 23.875 21.875 C24.37 22.865 24.37 22.865 24.875 23.875 C25.4525 23.359375 26.03 22.84375 26.625 22.3125 C28.875 20.875 28.875 20.875 31.125 21.1875 C31.7025 21.414375 32.28 21.64125 32.875 21.875 C34.0823352 25.89945068 33.9556341 28.34047452 32.1875 32.0625 C30.4732178 35.11788732 29.10443137 37.30641905 25.875 38.875 C24.740625 38.854375 23.60625 38.83375 22.4375 38.8125 C18.68655314 39.48353705 18.68655314 39.48353705 17.34765625 42.56640625 C16.09470498 45.64249241 14.97683454 48.74251171 13.875 51.875 C12.875 52.875 12.875 52.875 10.3125 52.9375 C9.508125 52.916875 8.70375 52.89625 7.875 52.875 C9.70991188 48.13481099 11.79441459 43.51086749 13.875 38.875 C12.92625 38.91625 11.9775 38.9575 11 39 C7.875 38.875 7.875 38.875 5.875 36.875 C5.318125 37.555625 4.76125 38.23625 4.1875 38.9375 C3.424375 39.576875 2.66125 40.21625 1.875 40.875 C-0.875 40.625 -0.875 40.625 -3.125 39.875 C-2.5475 39.648125 -1.97 39.42125 -1.375 39.1875 C3.03574753 36.61456394 5.36371441 32.66073769 6.875 27.875 C6.875 26.885 6.875 25.895 6.875 24.875 C6.318125 25.968125 5.76125 27.06125 5.1875 28.1875 C3.20376256 31.63657659 1.48205979 33.07147011 -2.125 34.875 C-3.41973932 35.72450196 -4.71114683 36.57909393 -6 37.4375 C-13.8247422 42.24826743 -22.08009232 42.84075937 -31.125 41.875 C-35.1458631 40.16530438 -38.12663395 38.8717321 -40.125 34.875 C-40.71274181 31.41385377 -40.81663859 29.06942551 -39.0234375 25.97265625 C-35.60385835 21.64789438 -32.30706921 19.63690353 -27.125 17.875 C-27.785 16.885 -28.445 15.895 -29.125 14.875 C-29.19039794 11.40890905 -28.99576501 8.95968127 -26.7734375 6.19140625 C-19.3441491 -0.61029386 -9.70799986 -3.49487995 0 0 Z M28.875 22.875 C25.17431105 26.9230028 21.91997388 30.702419 19.875 35.875 C20.205 36.535 20.535 37.195 20.875 37.875 C26.00390273 34.0388618 28.80169153 30.97296608 30.875 24.875 C30.215 24.215 29.555 23.555 28.875 22.875 Z M12.875 25.875 C10.46050691 29.62162721 9.48241205 32.42566995 9.875 36.875 C11.195 36.875 12.515 36.875 13.875 36.875 C17.1736558 33.29182402 19.41917083 28.73717784 19.875 23.875 C17.04083024 23.875 15.38131006 24.5301507 12.875 25.875 Z " fill="#823A40" transform="translate(612.125,216.125)"/>
<path d="M0 0 C1.65 0 3.3 0 5 0 C4.23816406 1.50626953 4.23816406 1.50626953 3.4609375 3.04296875 C-0.86297066 11.62335571 -5.04158764 20.24351206 -9 29 C-6.35247996 26.42215154 -4.05567935 24.08351902 -2 21 C-1.34 21.33 -0.68 21.66 0 22 C-0.81085127 23.31351921 -1.62373058 24.62578668 -2.4375 25.9375 C-2.88996094 26.66839844 -3.34242188 27.39929688 -3.80859375 28.15234375 C-5 30 -5 30 -6 31 C-8.4375 31.1875 -8.4375 31.1875 -11 31 C-11.66 30.34 -12.32 29.68 -13 29 C-13.66 29.66 -14.32 30.32 -15 31 C-17.5 31.25 -17.5 31.25 -20 31 C-20.66 30.34 -21.32 29.68 -22 29 C-22.86625 29.7734375 -22.86625 29.7734375 -23.75 30.5625 C-26 32 -26 32 -28.25 31.6875 C-30 31 -30 31 -30.6875 29.4375 C-31.16513722 25.71192968 -29.61290239 23.35483696 -28 20 C-30.77514738 22.62097253 -33.00945843 25.0149042 -35.0625 28.25 C-37 31 -37 31 -38.9375 31.9375 C-41.47142285 32.01428554 -43.56909364 31.72270189 -46 31 C-46.33 30.34 -46.66 29.68 -47 29 C-47.66 29.66 -48.32 30.32 -49 31 C-52.125 31.125 -52.125 31.125 -55 31 C-55.37695208 26.28809898 -55.46314703 22.92629407 -53.3125 18.625 C-50.92100714 15.91033242 -49.36380043 14.32987459 -46 13 C-42.1875 13.3125 -42.1875 13.3125 -39 14 C-37.88653212 16.80033839 -37.96489727 17.90143703 -38.99609375 20.796875 C-39.47175781 21.77140625 -39.94742188 22.7459375 -40.4375 23.75 C-40.91058594 24.73484375 -41.38367188 25.7196875 -41.87109375 26.734375 C-42.24363281 27.48203125 -42.61617187 28.2296875 -43 29 C-39.76612108 26.04732794 -37.77754751 23.12077252 -35.75 19.25 C-35.22921875 18.26515625 -34.7084375 17.2803125 -34.171875 16.265625 C-33.78515625 15.51796875 -33.3984375 14.7703125 -33 14 C-31.35 14 -29.7 14 -28 14 C-28.33 14.99 -28.66 15.98 -29 17 C-28.05125 16.505 -27.1025 16.01 -26.125 15.5 C-23 14 -23 14 -21 14 C-22.66666667 19 -24.33333333 24 -26 29 C-23.54369641 26.08882538 -21.47552935 23.15620857 -19.5625 19.875 C-17.47306466 16.49877826 -15.80621245 14.4853512 -12 13 C-8.6875 12.8125 -8.6875 12.8125 -6 13 C-5.7525 12.154375 -5.505 11.30875 -5.25 10.4375 C-3.86026373 6.61572526 -2.08879162 3.48131937 0 0 Z M-45.7890625 16.5390625 C-50.59825962 21.97432111 -50.59825962 21.97432111 -52 29 C-48.16341134 27.50610707 -46.53814574 25.36376981 -44.25 22 C-43.63640625 21.113125 -43.0228125 20.22625 -42.390625 19.3125 C-40.82821766 17.16407687 -40.82821766 17.16407687 -41 15 C-44.01428482 14.67392328 -44.01428482 14.67392328 -45.7890625 16.5390625 Z M-11.9453125 16.79296875 C-12.66460938 17.58316406 -13.38390625 18.37335938 -14.125 19.1875 C-14.84945312 19.96480469 -15.57390625 20.74210937 -16.3203125 21.54296875 C-18.22285318 24.32598755 -18.36306212 25.70316168 -18 29 C-14.14325624 27.5243763 -12.78176265 25.52993107 -10.75 22 C-9.96882812 20.6696875 -9.96882812 20.6696875 -9.171875 19.3125 C-7.84932375 17.13474537 -7.84932375 17.13474537 -8 15 C-10.19582211 14.77409067 -10.19582211 14.77409067 -11.9453125 16.79296875 Z " fill="#823A40" transform="translate(563,224)"/>
<path d="M0 0 C1.32 0 2.64 0 4 0 C3.67 1.65 3.34 3.3 3 5 C1.35 5.33 -0.3 5.66 -2 6 C-2.391875 7.175625 -2.78375 8.35125 -3.1875 9.5625 C-3.46335937 10.37847656 -3.73921875 11.19445312 -4.0234375 12.03515625 C-4.74361389 14.22161178 -5.43158969 16.41873632 -6.1015625 18.62109375 C-9.59680862 29.95652112 -14.58111993 40.80335545 -25.08203125 47.28515625 C-32.63010066 51.19222743 -39.5320435 51.57999702 -48 51 C-52.7157902 49.42806993 -55.49985437 47.32717512 -58 43 C-58.71513263 39.03864734 -58.40704724 35.94263571 -56.8125 32.25 C-54.78649072 29.734954 -52.60357533 27.89990632 -50 26 C-50 29 -50 29 -51.9375 31.3125 C-54.30730369 34.40042602 -54.91928647 36.12575033 -55 40 C-53.98615357 42.90635975 -52.98138601 44.40473308 -50.33203125 46.01171875 C-45.11671818 48.31228599 -40.47540651 48.51110026 -35 47 C-21.05072454 41.32651317 -15.32046748 29.67790972 -9.75 16.5 C-9.27046875 15.3346875 -8.7909375 14.169375 -8.296875 12.96875 C-7 10 -7 10 -5 7 C-17.19371901 10.60531751 -17.19371901 10.60531751 -26.375 18.9375 C-27.20411968 21.67359496 -27.12908336 24.16016615 -27 27 C-25.21858253 27.86358623 -25.21858253 27.86358623 -23 28 C-20.62580082 26.45952223 -20.62580082 26.45952223 -19 24 C-18.66501699 21.33165034 -18.66501699 21.33165034 -19 19 C-18.01 19.33 -17.02 19.66 -16 20 C-16.23564395 24.08449505 -16.40962119 26.34214932 -19.1875 29.4375 C-22.50640398 31.28133554 -24.25905831 31.55716153 -28 31 C-30.375 30 -30.375 30 -32 28 C-32.61312957 23.32488703 -32.5124173 21.0453313 -30.4375 16.8125 C-24.23035271 9.65040697 -17.1172053 7.06579715 -8 5 C-5.1015625 4.89453125 -5.1015625 4.89453125 -3 5 C-2.690625 4.360625 -2.38125 3.72125 -2.0625 3.0625 C-1 1 -1 1 0 0 Z " fill="#813A40" transform="translate(376,403)"/>
<path d="M0 0 C2.6875 0.3125 2.6875 0.3125 5 1 C5.45236462 7.44619587 4.72205782 10.68277455 1 16 C-2.08888522 18.05925681 -2.70935927 18.2390374 -6.1875 18.125 C-7.445625 18.08375 -8.70375 18.0425 -10 18 C-10.0825 18.66 -10.165 19.32 -10.25 20 C-11.24712728 23.98850914 -12.60608576 27.62962074 -15 31 C-17.75 32 -17.75 32 -20 32 C-18.16508812 27.25981099 -16.08058541 22.63586749 -14 18 C-14.598125 18.20625 -15.19625 18.4125 -15.8125 18.625 C-18 19 -18 19 -21 17 C-20.54177532 13.53058454 -20.10868317 10.32604951 -19 7 C-19.9593419 8.27007214 -20.91743294 9.54108919 -21.875 10.8125 C-22.40867187 11.52019531 -22.94234375 12.22789062 -23.4921875 12.95703125 C-24.70814781 14.60456297 -25.86416141 16.29624211 -27 18 C-27.99 17.67 -28.98 17.34 -30 17 C-29.34 14.03 -28.68 11.06 -28 8 C-28.98113243 9.29017414 -29.95984199 10.58219106 -30.9375 11.875 C-31.48277344 12.59429687 -32.02804687 13.31359375 -32.58984375 14.0546875 C-34.03964624 15.94357079 -34.03964624 15.94357079 -35 18 C-37.5625 18.625 -37.5625 18.625 -40 19 C-38.86951232 14.81719559 -37.13858564 11.03951484 -35.1875 7.1875 C-34.70667969 6.23230469 -34.22585938 5.27710938 -33.73046875 4.29296875 C-32 2 -32 2 -29.30078125 1.17578125 C-28.54152344 1.11777344 -27.78226562 1.05976563 -27 1 C-26.67 1.66 -26.34 2.32 -26 3 C-24.35 2.34 -22.7 1.68 -21 1 C-20.67 2.32 -20.34 3.64 -20 5 C-18.88625 4.34 -17.7725 3.68 -16.625 3 C-13.25 1 -13.25 1 -11 1 C-12.00056574 4.23259699 -13.08502036 7.1667707 -14.625 10.1875 C-16.21960507 12.92742219 -16.21960507 12.92742219 -16 16 C-11.80431671 10.96518005 -9.88914135 7.52036993 -9 1 C-7.35 1 -5.7 1 -4 1 C-3.505 1.99 -3.505 1.99 -3 3 C-2.608125 2.484375 -2.21625 1.96875 -1.8125 1.4375 C-1.214375 0.963125 -0.61625 0.48875 0 0 Z M1 2 C-2.45414217 5.58858483 -5.86541583 9.4797041 -8 14 C-7.67 14.99 -7.34 15.98 -7 17 C-3.13859288 13.99668335 -0.05110844 11.55801875 2 7 C2.25196129 4.29046449 2.25196129 4.29046449 2 2 C1.67 2 1.34 2 1 2 Z " fill="#823A40" transform="translate(451,237)"/>
<path d="M0 0 C2.625 -0.1875 2.625 -0.1875 5 0 C4.8125 1.8125 4.8125 1.8125 4 4 C3.21109375 4.41636719 2.4221875 4.83273438 1.609375 5.26171875 C-1.7233337 7.48186152 -2.26847353 9.24867587 -3.5625 13 C-4.18705078 14.74023438 -4.18705078 14.74023438 -4.82421875 16.515625 C-5.55014509 18.66687514 -6.26372502 20.8223915 -6.95703125 22.984375 C-10.21810327 32.80922177 -15.90430262 41.06370072 -25.140625 46.1875 C-32.95136456 49.81571451 -41.43124876 50.57543146 -49.625 47.75 C-53.10075179 45.18891973 -54.5886154 43.32230763 -55.875 39.1875 C-56.07825193 34.00457585 -54.23705299 30.37843047 -50.8125 26.5625 C-50.214375 26.046875 -49.61625 25.53125 -49 25 C-48.01 25.33 -47.02 25.66 -46 26 C-46.433125 26.42410156 -46.86625 26.84820312 -47.3125 27.28515625 C-50.32930743 30.46258075 -51.87601259 32.26847427 -52.625 36.6875 C-51.89097402 40.57783771 -51.20322479 41.72402449 -48 44 C-42.91024948 46.48569211 -38.38256644 46.34564161 -33 45 C-22.23096955 40.91582689 -16.1304726 32.25069099 -11.38671875 22.15234375 C-9.17862852 17.13282595 -7.03973777 12.09031904 -5 7 C-15.74050604 9.91782276 -15.74050604 9.91782276 -24 17 C-25.06320383 19.3910059 -25.53157293 21.39762738 -26 24 C-25.01 24.99 -24.02 25.98 -23 27 C-20.44309577 25.91744593 -20.44309577 25.91744593 -18 24 C-17.10792821 20.9042893 -17.10792821 20.9042893 -17 18 C-16.34 18 -15.68 18 -15 18 C-14.66214372 21.63195497 -14.77124015 23.58823227 -16.5625 26.8125 C-19.73895884 29.66316819 -21.76711284 30 -26 30 C-28.86914076 28.64093332 -29.72228832 27.66650804 -30.9375 24.75 C-31.0412749 20.18390425 -29.48045219 16.92552484 -26.765625 13.39453125 C-20.95961438 7.57355668 -11.60165652 5.07904606 -3.66796875 3.55078125 C-1.59177342 3.05516525 -1.59177342 3.05516525 0 0 Z " fill="#823A40" transform="translate(423,214)"/>
<path d="M0 0 C0.95465783 2.16967689 1.14401212 3.56328793 0.3984375 5.82421875 C-0.35870385 7.5684743 -1.17609198 9.28627131 -2 11 C-1.34 11 -0.68 11 0 11 C0 11.66 0 12.32 0 13 C-0.8353125 13.061875 -0.8353125 13.061875 -1.6875 13.125 C-5.17783335 14.44566667 -7.12106735 16.88615049 -9 20 C-9.93628248 22.67440687 -10.46931382 25.20183652 -11 28 C-7.59548229 26.86516076 -7.3994436 26.44722063 -5.8125 23.4375 C-5.214375 22.303125 -4.61625 21.16875 -4 20 C-3.34 20 -2.68 20 -2 20 C-3.19056598 24.36540858 -4.30864473 27.25785037 -8 30 C-10.625 30.375 -10.625 30.375 -13 30 C-13.66 29.34 -14.32 28.68 -15 28 C-15.66 28.66 -16.32 29.32 -17 30 C-19.5625 30.1875 -19.5625 30.1875 -22 30 C-22.33 29.67 -22.66 29.34 -23 29 C-22.32075472 20.71320755 -22.32075472 20.71320755 -20 17 C-20.99 16.67 -21.98 16.34 -23 16 C-23.0825 16.86625 -23.165 17.7325 -23.25 18.625 C-24.30047061 23.35211773 -26.6014777 26.6014777 -30 30 C-33.0390625 30.1953125 -33.0390625 30.1953125 -36.625 30.125 C-37.81351563 30.10695312 -39.00203125 30.08890625 -40.2265625 30.0703125 C-41.14179687 30.04710937 -42.05703125 30.02390625 -43 30 C-43.86870932 26.05132128 -44.24076843 23.64627315 -42.8125 19.8125 C-40.43408795 16.12186061 -38.67683249 13.57257695 -34.4375 12.125 C-32 12 -32 12 -29 14 C-28.40177833 18.44393244 -28.72709091 20.5309375 -31 24.4375 C-31.66 25.283125 -32.32 26.12875 -33 27 C-29.99454327 25.95768203 -29.11327902 25.21185054 -27.5859375 22.35546875 C-27.18632813 21.31003906 -26.78671875 20.26460937 -26.375 19.1875 C-25.76785156 17.63095703 -25.76785156 17.63095703 -25.1484375 16.04296875 C-24.76945313 15.03878906 -24.39046875 14.03460938 -24 13 C-23.33644757 11.33209101 -22.67090942 9.66496329 -22 8 C-21.01 8 -20.02 8 -19 8 C-19 9.65 -19 11.3 -19 13 C-17.68 13.33 -16.36 13.66 -15 14 C-15.51363807 17.76667915 -16.26269051 20.64120164 -18 24 C-18 24.99 -18 25.98 -18 27 C-14.28546479 20.81407794 -14.28546479 20.81407794 -12 14 C-12.66 13.01 -13.32 12.02 -14 11 C-13.39414062 10.9278125 -12.78828125 10.855625 -12.1640625 10.78125 C-9.19438732 9.7091651 -8.74366929 8.29031933 -7.375 5.5 C-4.64240506 0 -4.64240506 0 0 0 Z M-3 4 C-4.485 7.465 -4.485 7.465 -6 11 C-5.34 11 -4.68 11 -4 11 C-2.87483915 9.16715557 -2.87483915 9.16715557 -2 7 C-2.33 6.01 -2.66 5.02 -3 4 Z M-36.625 17.5625 C-39.23645718 20.84838756 -39.748329 23.8054833 -40 28 C-39.01 28 -38.02 28 -37 28 C-37 26.35 -37 24.7 -37 23 C-35.35 22.67 -33.7 22.34 -32 22 C-31.67 19.69 -31.34 17.38 -31 15 C-34.25361001 14.65073164 -34.25361001 14.65073164 -36.625 17.5625 Z " fill="#823A40" transform="translate(689,225)"/>
<path d="M0 0 C0.95465783 2.16967689 1.14401212 3.56328793 0.3984375 5.82421875 C-0.35870385 7.5684743 -1.17609198 9.28627131 -2 11 C-1.34 11 -0.68 11 0 11 C0 11.66 0 12.32 0 13 C-0.8353125 13.061875 -0.8353125 13.061875 -1.6875 13.125 C-5.17783335 14.44566667 -7.12106735 16.88615049 -9 20 C-9.93628248 22.67440687 -10.46931382 25.20183652 -11 28 C-7.59548229 26.86516076 -7.3994436 26.44722063 -5.8125 23.4375 C-5.214375 22.303125 -4.61625 21.16875 -4 20 C-3.34 20 -2.68 20 -2 20 C-3.19056598 24.36540858 -4.30864473 27.25785037 -8 30 C-10.625 30.375 -10.625 30.375 -13 30 C-13.66 29.34 -14.32 28.68 -15 28 C-15.66 28.66 -16.32 29.32 -17 30 C-19.5625 30.1875 -19.5625 30.1875 -22 30 C-22.33 29.67 -22.66 29.34 -23 29 C-22.32075472 20.71320755 -22.32075472 20.71320755 -20 17 C-20.99 16.67 -21.98 16.34 -23 16 C-23.0928125 16.99 -23.0928125 16.99 -23.1875 18 C-24.36125484 22.33386403 -26.78750912 26.78750912 -30 30 C-32.18639453 30.07258946 -34.37500389 30.08373783 -36.5625 30.0625 C-38.35880859 30.04896484 -38.35880859 30.04896484 -40.19140625 30.03515625 C-41.11824219 30.02355469 -42.04507812 30.01195312 -43 30 C-44.43304064 27.13391871 -44.30644155 25.18699217 -44 22 C-41.70105343 17.74269154 -39.15385578 14.53283889 -35 12 C-32.1875 12.25 -32.1875 12.25 -30 13 C-28.92488122 17.39006837 -28.6742059 20.04622243 -30.9375 23.9375 C-31.618125 24.948125 -32.29875 25.95875 -33 27 C-29.99454327 25.95768203 -29.11327902 25.21185054 -27.5859375 22.35546875 C-27.18632812 21.31003906 -26.78671875 20.26460937 -26.375 19.1875 C-25.76785156 17.63095703 -25.76785156 17.63095703 -25.1484375 16.04296875 C-24.76945312 15.03878906 -24.39046875 14.03460938 -24 13 C-23.33644757 11.33209101 -22.67090942 9.66496329 -22 8 C-21.01 8 -20.02 8 -19 8 C-19 9.65 -19 11.3 -19 13 C-17.68 13.33 -16.36 13.66 -15 14 C-15.51363807 17.76667915 -16.26269051 20.64120164 -18 24 C-18 24.99 -18 25.98 -18 27 C-14.28546479 20.81407794 -14.28546479 20.81407794 -12 14 C-12.66 13.01 -13.32 12.02 -14 11 C-13.39414062 10.9278125 -12.78828125 10.855625 -12.1640625 10.78125 C-9.19438732 9.7091651 -8.74366929 8.29031933 -7.375 5.5 C-4.64240506 0 -4.64240506 0 0 0 Z M-3 4 C-4.485 7.465 -4.485 7.465 -6 11 C-5.34 11 -4.68 11 -4 11 C-2.87483915 9.16715557 -2.87483915 9.16715557 -2 7 C-2.33 6.01 -2.66 5.02 -3 4 Z M-36 16.75 C-39.3333891 20.50006274 -40.27958478 22.96747394 -40 28 C-39.01 28 -38.02 28 -37 28 C-37 26.35 -37 24.7 -37 23 C-35.68 23 -34.36 23 -33 23 C-31.57055055 20.64561267 -30.91338739 19.51967567 -31.375 16.75 C-31.58125 16.1725 -31.7875 15.595 -32 15 C-34.19206384 14.78049846 -34.19206384 14.78049846 -36 16.75 Z " fill="#823A40" transform="translate(500,225)"/>
<path d="M0 0 C16.25773059 5.73662236 29.576435 15.25175776 37.85546875 30.50390625 C39.23948586 34.65595757 39.65939193 38.1740042 38.85546875 42.50390625 C34.68760669 50.62667392 25.54103293 54.40675561 17.85546875 58.50390625 C14.18819405 60.36362635 14.18819405 60.36362635 11.85546875 63.50390625 C11.25241949 69.33338244 11.8755817 72.758367 15.265625 77.56640625 C25.91740679 90.54744745 41.03919463 94.61680859 56.85546875 97.50390625 C56.85546875 98.16390625 56.85546875 98.82390625 56.85546875 99.50390625 C41.02115021 98.05459021 25.50059803 93.39174066 14.328125 81.34765625 C10.13401721 76.0966778 8.42238027 71.39148138 8.32421875 64.6796875 C9.10759983 61.47128117 10.55145047 59.8568661 12.85546875 57.50390625 C16.02734375 55.73046875 16.02734375 55.73046875 19.60546875 54.12890625 C25.74381134 51.25966407 32.69096101 47.83292172 35.85546875 41.50390625 C36.95858033 32.67901359 32.75782532 27.2667605 27.5234375 20.48046875 C20.51583343 12.6623219 11.06041836 7.78255822 1.53515625 3.6953125 C-1.14453125 2.50390625 -1.14453125 2.50390625 -4.14453125 0.50390625 C-2.14453125 -0.49609375 -2.14453125 -0.49609375 0 0 Z " fill="#0F0708" transform="translate(271.14453125,38.49609375)"/>
<path d="M0 0 C1.32 0 2.64 0 4 0 C3.67 1.65 3.34 3.3 3 5 C1.68 4.67 0.36 4.34 -1 4 C-0.67 2.68 -0.34 1.36 0 0 Z " fill="#813A40" transform="translate(470,422)"/>
</svg>
